<?xml version="1.0" standalone="no"?>
<!DOCTYPE svg PUBLIC "-//W3C//DTD SVG 20010904//EN"
 "http://www.w3.org/TR/2001/REC-SVG-20010904/DTD/svg10.dtd">
<svg version="1.0" xmlns="http://www.w3.org/2000/svg"
 width="1200.000000pt" height="1200.000000pt" viewBox="0 0 1200.000000 1200.000000"
 preserveAspectRatio="xMidYMid meet">
<metadata>
Created by potrace 1.14, written by Peter Selinger 2001-2017
</metadata>
<g transform="translate(0.000000,1200.000000) scale(0.100000,-0.100000)"
fill="#000000" stroke="none">
<path d="M3386 11194 c-391 -84 -698 -372 -861 -809 -39 -104 -100 -348 -109
-438 -4 -29 -8 -62 -11 -75 -18 -96 -25 -513 -12 -712 13 -183 32 -362 52
-470 2 -14 7 -45 11 -70 9 -72 40 -235 69 -365 33 -150 30 -137 49 -219 9 -38
13 -73 9 -76 -5 -4 -37 -15 -73 -24 -36 -10 -135 -40 -220 -68 -637 -206
-1146 -461 -1517 -757 -592 -474 -782 -1053 -524 -1604 276 -589 1047 -1088
2239 -1447 56 -17 102 -34 102 -38 0 -4 -7 -36 -16 -72 -18 -76 -17 -73 -39
-170 -8 -41 -20 -93 -25 -115 -6 -22 -12 -51 -14 -65 -2 -14 -13 -77 -24 -140
-12 -63 -24 -133 -27 -155 -3 -22 -7 -53 -10 -70 -7 -46 -13 -94 -20 -160 -4
-33 -8 -71 -11 -85 -17 -103 -24 -583 -11 -745 59 -720 347 -1209 821 -1394
158 -61 226 -72 466 -71 175 1 224 5 316 25 336 71 669 223 1058 484 219 146
207 137 391 283 44 35 93 75 109 88 119 101 218 188 319 284 66 61 122 111
127 111 4 0 41 -31 81 -70 65 -61 215 -196 304 -274 236 -206 600 -464 850
-603 89 -50 322 -163 355 -173 14 -4 30 -11 35 -15 22 -15 235 -83 328 -105
34 -8 76 -17 92 -21 17 -4 138 -9 270 -10 209 -2 250 0 320 17 44 10 89 23
100 29 11 5 49 21 84 35 61 24 188 97 241 139 70 56 202 201 251 276 135 204
240 500 274 770 3 25 8 61 10 80 25 185 25 694 1 840 -2 14 -7 57 -10 96 -4
39 -8 80 -10 90 -4 18 -13 86 -20 149 -12 99 -81 442 -117 589 -17 65 -28 124
-25 131 2 7 20 15 40 19 63 12 526 165 621 206 11 4 72 29 135 55 127 51 161
67 330 149 691 334 1138 761 1274 1219 13 45 28 102 31 127 4 25 9 54 12 65 9
43 5 234 -6 295 -29 162 -76 292 -152 422 -323 555 -1071 1015 -2201 1353 -49
14 -88 29 -88 33 0 4 5 25 10 47 21 87 79 355 94 435 9 47 18 96 21 110 3 14
8 45 11 70 3 25 8 54 10 64 5 28 22 160 30 231 3 33 8 74 10 90 24 183 24 707
0 845 -3 14 -7 48 -11 75 -26 212 -112 491 -201 655 -125 229 -314 418 -514
512 -104 49 -131 60 -228 84 -87 21 -119 24 -302 24 -179 0 -251 -5 -348 -24
-48 -10 -245 -68 -295 -88 -150 -59 -192 -77 -299 -130 -291 -145 -582 -337
-881 -581 -101 -83 -159 -130 -171 -142 -6 -5 -31 -28 -56 -49 -25 -22 -98
-89 -164 -150 -65 -61 -122 -111 -126 -111 -4 0 -61 50 -126 111 -65 61 -137
126 -159 145 -22 19 -42 37 -45 40 -4 5 -150 126 -225 187 -251 205 -571 414
-830 545 -203 101 -470 199 -615 223 -14 3 -49 9 -79 14 -86 16 -454 11 -535
-6z m434 -495 c374 -50 887 -328 1410 -764 163 -136 410 -362 410 -374 0 -3
-20 -27 -43 -52 -36 -39 -82 -90 -178 -199 -79 -90 -283 -338 -382 -465 -64
-82 -121 -155 -126 -161 -10 -12 -255 -348 -255 -351 -1 0 -26 -4 -56 -8 -30
-3 -66 -8 -80 -10 -14 -2 -59 -7 -100 -10 -78 -7 -86 -8 -210 -24 -41 -6 -94
-13 -117 -16 -66 -8 -117 -15 -138 -19 -11 -2 -45 -7 -75 -12 -30 -4 -57 -8
-60 -9 -3 -1 -32 -5 -65 -10 -33 -5 -62 -9 -65 -10 -27 -7 -73 -15 -110 -21
-25 -3 -135 -24 -245 -46 -110 -23 -211 -41 -224 -42 -24 -1 -31 12 -45 79 -2
11 -10 43 -16 70 -17 73 -17 74 -34 150 -16 76 -18 87 -35 180 -24 139 -50
302 -57 370 -24 227 -28 309 -29 495 0 313 25 510 91 714 78 242 202 408 364
487 104 51 125 57 240 67 84 8 108 7 230 -9z m4740 -19 c210 -70 354 -233 448
-505 23 -65 51 -173 57 -214 2 -14 6 -42 9 -61 23 -131 32 -289 30 -485 -1
-121 -5 -242 -8 -270 -3 -27 -8 -77 -11 -110 -13 -135 -22 -195 -55 -395 -34
-203 -106 -528 -120 -544 -5 -4 -50 1 -102 13 -125 29 -615 119 -678 126 -14
1 -77 10 -140 19 -153 22 -175 25 -240 31 -30 3 -67 8 -82 11 -28 4 -79 10
-183 19 -33 3 -69 8 -80 10 -11 2 -29 4 -40 4 -12 1 -30 17 -44 39 -64 98
-411 550 -577 752 -71 85 -281 326 -341 390 -24 25 -43 48 -43 52 0 10 209
202 350 321 47 40 94 80 105 91 83 76 421 316 591 418 217 132 520 261 682
293 31 6 170 24 207 27 63 6 204 -11 265 -32z m-2513 -1537 c23 -27 54 -62 70
-79 42 -46 136 -154 169 -194 16 -19 31 -37 34 -40 20 -17 337 -417 353 -446
4 -7 -17 -9 -66 -5 -89 6 -1057 7 -1184 1 -56 -2 -92 0 -92 5 3 27 330 430
544 670 34 39 75 85 90 103 15 17 30 32 34 32 4 0 26 -21 48 -47z m628 -1277
c28 -2 109 -7 180 -11 72 -5 141 -9 155 -10 14 -2 32 -3 41 -4 34 -2 410 -596
653 -1031 54 -96 111 -197 127 -223 16 -27 29 -53 29 -58 0 -5 11 -27 25 -49
26 -41 245 -474 245 -485 0 -14 -216 -438 -308 -605 -14 -25 -38 -70 -54 -100
-17 -30 -48 -86 -70 -125 -22 -38 -52 -90 -66 -115 -14 -25 -36 -62 -49 -82
-12 -21 -23 -40 -23 -43 0 -3 -9 -18 -19 -33 -10 -15 -58 -92 -107 -172 -131
-217 -365 -570 -378 -571 -6 0 -29 -2 -51 -4 -272 -23 -502 -30 -1005 -30
-515 0 -652 4 -995 30 -16 1 -40 3 -51 4 -22 1 -51 42 -229 316 -43 66 -90
140 -105 165 -15 25 -51 83 -80 130 -87 141 -261 444 -362 630 -99 181 -308
592 -308 604 0 28 318 634 473 901 177 306 166 287 291 488 172 274 298 457
314 458 10 1 35 3 57 4 95 8 221 15 370 21 88 3 162 8 164 10 5 4 1076 -4
1136 -10z m-2407 -108 c-67 -101 -339 -553 -361 -598 -4 -8 -13 -24 -20 -35
-17 -29 -71 -123 -99 -175 -14 -25 -38 -70 -55 -100 -17 -30 -52 -95 -78 -145
-26 -49 -50 -94 -54 -98 -4 -4 -36 63 -70 150 -35 87 -69 172 -76 188 -7 17
-25 64 -40 105 -14 41 -31 84 -36 95 -12 26 -149 436 -149 445 0 4 15 10 33
13 17 3 86 17 152 31 137 28 141 29 295 56 162 28 355 58 420 66 48 6 139 20
149 23 2 0 -3 -9 -11 -21z m3527 8 c87 -10 129 -16 155 -21 14 -2 48 -7 75
-11 28 -3 59 -8 70 -10 11 -2 63 -11 115 -20 95 -15 119 -19 175 -29 69 -13
380 -77 383 -80 4 -4 -80 -261 -143 -435 -88 -244 -217 -562 -225 -553 -4 4
-25 42 -47 83 -84 156 -174 320 -203 370 -16 28 -30 53 -30 55 0 6 -283 479
-342 570 -62 98 -61 95 -46 91 7 -3 36 -7 63 -10z m-5000 -486 c65 -197 189
-540 226 -625 4 -11 35 -85 68 -165 54 -133 143 -340 193 -449 20 -45 20 -45
0 -90 -254 -582 -407 -975 -518 -1331 -14 -47 -29 -88 -33 -92 -7 -8 -331 90
-489 148 -428 157 -758 321 -1024 507 -320 225 -494 439 -558 686 -13 48 -15
175 -5 231 55 299 353 610 850 887 98 55 314 158 410 198 50 20 104 42 120 50
32 14 333 126 350 129 6 1 69 21 140 44 163 52 198 61 206 53 3 -3 32 -85 64
-181z m6560 165 c33 -9 152 -48 265 -85 819 -272 1394 -632 1628 -1017 36 -61
76 -152 88 -203 4 -19 9 -42 11 -50 10 -43 3 -183 -12 -240 -61 -238 -272
-483 -610 -707 -151 -101 -366 -217 -577 -312 -128 -57 -544 -215 -598 -226
-15 -3 -44 -12 -194 -60 -44 -14 -83 -22 -87 -18 -3 5 -27 71 -52 148 -122
376 -378 1030 -494 1259 -28 55 -27 64 21 167 19 41 62 139 95 219 34 80 68
159 76 175 44 92 225 581 292 790 57 178 61 188 76 182 6 -2 39 -12 72 -22z
m-5712 -2137 c25 -46 63 -117 85 -158 22 -41 68 -124 102 -185 34 -60 75 -133
91 -161 15 -27 66 -113 112 -190 116 -194 138 -229 172 -282 58 -89 79 -126
69 -120 -5 4 -36 9 -70 12 -33 4 -71 9 -85 11 -13 2 -40 6 -59 9 -77 10 -306
47 -320 51 -8 2 -33 7 -55 10 -51 7 -52 7 -270 51 -99 20 -182 38 -184 40 -7
6 141 435 226 653 57 147 136 341 139 341 1 0 23 -37 47 -82z m4892 -238 c73
-189 235 -650 235 -670 0 -4 -71 -21 -157 -39 -292 -58 -433 -83 -673 -116
-102 -14 -193 -27 -203 -29 -16 -4 -15 -1 4 32 12 21 28 44 34 52 12 14 262
430 307 508 78 139 214 384 263 476 l58 110 24 -54 c13 -29 61 -150 108 -270z
m-5195 -1219 c107 -21 209 -41 225 -44 17 -3 73 -12 125 -21 173 -29 293 -47
450 -67 85 -11 166 -22 180 -24 14 -2 54 -6 90 -9 36 -4 81 -8 100 -11 19 -2
60 -7 90 -10 34 -3 59 -12 65 -21 6 -9 27 -39 48 -67 20 -29 45 -63 55 -76 35
-50 166 -226 172 -231 3 -3 34 -43 70 -90 35 -47 70 -92 77 -100 184 -228 390
-470 510 -600 24 -25 43 -48 43 -51 0 -4 -46 -49 -102 -100 -56 -52 -108 -101
-117 -109 -9 -9 -50 -45 -91 -80 -41 -36 -77 -67 -80 -70 -3 -3 -27 -23 -55
-45 -27 -21 -52 -42 -55 -45 -6 -6 -49 -39 -165 -127 -356 -269 -751 -474
-1046 -542 -425 -98 -715 22 -879 364 -77 160 -118 323 -146 580 -10 92 -10
466 0 580 13 152 25 261 31 290 2 11 7 43 10 70 3 28 8 59 10 71 3 12 7 39 10
60 3 21 12 73 21 114 8 41 16 86 19 100 11 60 18 92 46 210 38 162 34 154 67
147 15 -4 115 -24 222 -46z m5578 37 c0 -7 10 -51 21 -98 53 -217 116 -567
137 -755 3 -33 8 -67 9 -76 18 -93 25 -536 12 -684 -35 -397 -143 -680 -320
-840 -269 -244 -741 -199 -1301 124 -49 28 -91 51 -93 51 -18 0 -459 313 -541
384 -15 13 -67 57 -117 99 -49 41 -108 92 -130 112 -147 135 -235 219 -235
224 0 3 21 29 46 56 128 139 202 223 252 285 20 25 62 74 92 110 135 157 477
604 595 778 1 1 24 5 51 7 27 3 67 7 89 10 22 2 67 7 100 10 33 3 74 8 90 10
27 3 59 7 160 20 17 2 53 7 80 10 57 8 417 63 455 70 14 3 41 8 60 11 19 3 42
7 50 9 8 2 31 7 50 10 40 6 270 54 315 65 47 12 72 11 73 -2z m-2853 -282
c292 1 549 4 572 7 29 3 40 1 36 -7 -9 -15 -96 -130 -103 -136 -3 -3 -19 -23
-35 -45 -17 -22 -32 -42 -35 -45 -3 -3 -32 -39 -64 -80 -79 -99 -290 -345
-413 -479 l-21 -24 -29 29 c-73 75 -355 404 -423 493 -14 18 -30 38 -35 44
-21 23 -195 245 -195 249 0 1 48 1 107 -3 60 -3 347 -4 638 -3z"/>
<path d="M5875 7034 c-183 -35 -235 -52 -360 -116 -96 -49 -174 -106 -250
-182 -470 -469 -394 -1245 158 -1609 188 -125 377 -179 602 -173 146 4 245 25
371 76 553 226 804 871 548 1408 -59 122 -113 200 -205 293 -127 130 -296 227
-477 275 -77 20 -125 26 -232 29 -74 1 -144 1 -155 -1z"/>
</g>
</svg>
